<!DOCTYPE svg PUBLIC "-//W3C//DTD SVG 20010904//EN" "http://www.w3.org/TR/2001/REC-SVG-20010904/DTD/svg10.dtd">
<svg version="1.0" xmlns="http://www.w3.org/2000/svg" width="200px" height="160px" viewBox="0 0 2000 1600" preserveAspectRatio="xMidYMid meet">
<g id="layer1" fill="#000000" stroke="none">
 <path d="M380 1589 c-39 -16 -88 -69 -101 -108 -6 -20 -65 -184 -131 -366 -142 -390 -151 -420 -146 -502 5 -73 25 -107 84 -139 35 -20 1170 -434 1271 -464 57 -17 156 -9 190 16 46 35 63 67 127 240 l62 169 69 6 c73 5 104 17 143 53 51 46 52 56 52 532 0 289 -4 452 -11 471 -6 15 -20 39 -32 51 -49 53 -33 52 -821 51 -458 0 -740 -4 -756 -10z m1464 -145 c14 -13 16 -49 16 -240 l0 -224 -720 0 -720 0 0 224 c0 191 2 227 16 240 14 14 91 16 704 16 613 0 690 -2 704 -16z m16 -784 c0 -74 39 -71 -734 -68 -761 3 -706 -2 -706 71 l0 37 720 0 720 0 0 -40z"/>
 <path d="M505 1367 c-3 -7 -4 -80 -3 -162 l3 -150 160 0 160 0 0 160 0 160 -158 3 c-123 2 -159 0 -162 -11z"/>
 </g>

</svg>