<!DOCTYPE svg PUBLIC "-//W3C//DTD SVG 20010904//EN" "http://www.w3.org/TR/2001/REC-SVG-20010904/DTD/svg10.dtd">
<svg version="1.0" xmlns="http://www.w3.org/2000/svg" width="1600px" height="409px" viewBox="0 0 16000 4090" preserveAspectRatio="xMidYMid meet">
<g id="layer1" fill="#323232" stroke="none">
 <path d="M8910 3285 c-80 -47 -209 -121 -287 -166 -79 -44 -145 -85 -148 -90 -9 -14 -5 -693 4 -702 7 -7 196 94 319 171 20 12 48 28 62 35 44 22 174 99 208 124 l32 24 0 322 c0 276 -2 326 -16 345 -8 12 -18 22 -22 22 -4 -1 -72 -39 -152 -85z"/>
 <path d="M14806 3353 c-3 -4 -6 -160 -6 -348 0 -313 1 -343 18 -357 19 -16 70 -46 237 -138 33 -18 65 -37 71 -41 6 -5 29 -19 51 -32 22 -12 74 -42 116 -65 l77 -44 0 -514 c0 -438 2 -515 14 -520 8 -3 41 10 73 30 32 19 76 45 98 56 22 11 58 32 80 45 22 14 76 45 120 70 108 62 114 65 160 96 22 15 49 28 60 30 20 4 20 12 20 543 l0 539 -30 18 c-16 10 -86 50 -155 89 -69 39 -143 82 -165 95 -22 14 -47 28 -55 32 -8 4 -37 21 -65 38 -58 37 -80 46 -117 51 -15 2 -120 58 -234 124 -114 67 -223 130 -243 141 -20 11 -55 30 -77 44 -23 13 -44 21 -48 18z"/>
 <path d="M10310 2691 c-36 -21 -126 -73 -200 -115 -207 -119 -319 -187 -330 -201 -7 -8 -9 -128 -8 -346 l3 -334 23 -3 c13 -2 40 7 60 20 20 14 44 27 52 31 8 4 33 18 55 32 34 21 227 132 323 185 15 9 39 24 55 34 27 18 28 18 65 -5 50 -33 62 -40 171 -101 120 -68 159 -90 198 -114 131 -80 164 -95 179 -83 12 10 14 64 12 353 l-3 341 -115 68 c-63 37 -187 109 -275 159 -88 50 -169 97 -180 104 -17 11 -29 7 -85 -25z"/>
 <path d="M12670 2613 c-91 -53 -221 -129 -290 -168 l-125 -71 -3 -340 c-2 -282 0 -343 12 -353 11 -9 29 -2 87 33 41 25 92 54 114 66 22 11 56 31 77 43 20 12 76 45 125 73 192 110 180 105 193 89 6 -8 21 -17 33 -21 12 -4 33 -15 47 -24 14 -10 72 -44 129 -76 138 -79 177 -101 263 -152 39 -23 79 -41 87 -40 14 3 16 44 16 353 l0 349 -125 73 c-253 149 -456 263 -465 263 -6 -1 -84 -44 -175 -97z"/>
 <path d="M1775 2392 c-11 -2 -31 -12 -45 -22 -14 -9 -32 -20 -40 -23 -8 -4 -33 -18 -55 -32 -22 -14 -60 -36 -85 -50 -25 -14 -63 -36 -85 -50 -22 -13 -58 -34 -80 -45 -22 -12 -58 -32 -80 -45 -99 -59 -91 -56 -116 -36 -13 10 -37 25 -54 33 -28 14 -261 147 -339 193 -111 65 -132 76 -151 73 -20 -3 -20 -9 -23 -344 l-2 -342 102 -57 c57 -32 187 -107 289 -166 102 -60 193 -111 200 -114 14 -5 88 34 434 235 l170 99 3 339 c2 359 2 364 -43 354z"/>
 <path d="M3087 2374 c-4 -4 -7 -163 -7 -354 0 -323 1 -348 18 -363 10 -10 22 -17 26 -17 4 0 20 -8 34 -19 15 -10 54 -33 87 -51 33 -18 76 -42 95 -53 115 -66 143 -83 158 -92 108 -66 164 -95 179 -95 10 1 43 16 73 35 30 19 71 42 90 51 19 10 59 33 88 51 29 18 55 33 58 33 3 0 18 8 32 19 15 10 47 29 72 43 138 76 162 93 175 119 13 24 15 83 13 361 l-3 333 -30 -1 c-16 -1 -63 -22 -103 -45 -40 -24 -93 -55 -117 -69 -24 -14 -101 -58 -172 -99 -192 -110 -171 -102 -207 -80 -17 10 -47 27 -66 37 -19 9 -46 25 -60 33 -14 9 -87 52 -163 95 -183 104 -173 98 -188 111 -18 14 -73 26 -82 17z"/>
 <path d="M5537 2374 c-4 -4 -7 -163 -7 -354 0 -318 1 -348 18 -362 20 -17 141 -88 149 -88 3 0 21 -11 39 -25 18 -14 38 -25 45 -25 7 0 22 -8 33 -18 12 -10 88 -56 169 -101 l148 -82 82 47 c45 25 117 67 160 93 109 65 126 74 177 103 135 75 159 90 164 104 7 19 9 691 1 703 -7 12 -44 2 -76 -20 -15 -10 -62 -37 -105 -60 -44 -23 -86 -47 -94 -54 -13 -11 -213 -126 -283 -162 -26 -14 -32 -12 -145 51 -64 37 -134 76 -154 89 -118 70 -276 158 -293 163 -11 3 -24 2 -28 -2z"/>
 <path d="M5516 1342 c-3 -5 -51 -35 -108 -67 -385 -218 -468 -269 -468 -286 0 -5 48 -36 108 -69 59 -34 121 -69 137 -79 40 -25 237 -137 303 -174 33 -18 58 -25 63 -20 5 5 8 154 7 353 -3 312 -5 345 -20 348 -9 2 -19 -1 -22 -6z"/>
 <path d="M6707 1343 c-12 -11 -8 -691 4 -698 12 -8 44 8 154 75 44 27 98 58 120 70 22 11 57 31 77 43 20 12 87 50 148 85 60 35 110 67 110 72 0 16 -85 68 -547 332 -52 30 -56 31 -66 21z"/>
 </g>
<g id="layer2" fill="#020202" stroke="none">
 <path d="M6043 4052 c-39 -20 -106 -57 -148 -82 -156 -91 -170 -100 -185 -106 -8 -4 -33 -19 -55 -34 -22 -14 -57 -35 -78 -45 -47 -25 -71 -50 -62 -65 4 -7 22 -19 39 -27 17 -8 52 -27 78 -41 100 -58 194 -113 223 -132 17 -11 48 -29 70 -40 40 -21 52 -27 113 -67 l34 -21 -26 -16 c-66 -40 -78 -48 -123 -73 -26 -14 -61 -35 -78 -45 -16 -10 -37 -21 -45 -25 -8 -3 -33 -18 -55 -33 -22 -15 -80 -49 -129 -76 -92 -51 -146 -82 -208 -118 -20 -11 -83 -48 -140 -80 -57 -32 -134 -77 -172 -100 -38 -23 -89 -53 -113 -67 -25 -14 -49 -32 -54 -40 -13 -21 -12 -1726 2 -1734 5 -4 18 -1 27 7 9 8 91 57 182 110 91 52 211 121 268 154 56 32 113 65 127 72 l25 13 -7 508 -6 508 26 5 c14 3 25 2 24 -1 -1 -3 2 -6 8 -6 5 0 10 6 10 14 0 14 33 36 120 81 42 21 63 34 105 61 26 17 53 33 155 89 33 18 67 38 75 44 50 37 60 38 98 13 21 -13 64 -39 97 -57 94 -52 117 -65 170 -98 28 -17 68 -40 90 -52 22 -11 49 -26 60 -33 11 -7 42 -25 68 -41 l48 -29 -7 -841 c-5 -750 -5 -843 9 -861 12 -15 19 -17 27 -9 8 8 9 14 1 18 -8 5 -11 112 -11 342 l0 335 50 -28 c235 -131 506 -292 524 -310 47 -49 46 -81 46 1209 0 1142 -1 1209 -17 1215 -10 4 -33 17 -52 30 -18 12 -56 34 -85 49 -28 14 -71 39 -96 55 -25 16 -56 34 -70 39 -14 6 -32 17 -40 24 -8 7 -40 26 -70 42 -30 16 -78 43 -107 61 -29 18 -55 33 -59 33 -4 0 -22 11 -40 25 -18 14 -38 25 -45 25 -7 0 -26 10 -43 23 -72 54 -460 267 -486 267 -8 -1 -47 -17 -87 -38z"/>
 <path d="M8973 4022 c-45 -26 -108 -63 -140 -82 -32 -19 -67 -39 -78 -45 -149 -83 -209 -118 -225 -131 -8 -7 -51 -32 -96 -56 -44 -23 -118 -65 -165 -92 -46 -27 -100 -58 -119 -68 -19 -11 -53 -30 -75 -44 -22 -13 -58 -33 -80 -44 -22 -11 -58 -33 -80 -48 l-40 -28 -3 -1217 -2 -1217 37 -19 c97 -50 122 -64 178 -101 33 -21 78 -48 100 -60 22 -12 61 -33 87 -48 158 -91 200 -113 216 -110 16 3 17 54 20 858 2 751 4 855 17 863 23 12 8 29 -15 17 -19 -10 -20 -2 -22 330 l-3 341 145 82 c80 46 209 120 287 165 l142 82 25 -25 c14 -14 29 -25 34 -25 5 0 49 -24 98 -53 49 -29 96 -56 104 -60 8 -4 33 -18 55 -32 22 -14 47 -28 55 -32 8 -3 26 -14 40 -23 14 -10 52 -32 85 -50 33 -18 64 -36 68 -40 5 -4 -35 -32 -89 -61 -105 -58 -123 -69 -199 -114 -47 -28 -83 -48 -147 -82 l-28 -14 0 -699 0 -698 73 -43 c39 -24 93 -54 119 -66 26 -13 50 -28 53 -33 3 -6 25 -19 48 -31 23 -11 51 -26 62 -32 11 -7 46 -28 78 -47 83 -50 146 -86 192 -110 22 -12 58 -32 80 -46 22 -13 56 -32 75 -41 19 -10 39 -24 43 -30 4 -7 13 -13 19 -13 6 0 34 -15 62 -33 28 -19 67 -41 86 -51 70 -35 116 -62 164 -94 l50 -34 40 23 c23 12 47 26 53 32 7 5 36 21 65 37 73 37 124 67 156 89 43 29 81 51 151 88 36 19 73 41 81 47 8 7 31 21 50 30 34 18 52 28 201 114 41 24 81 47 89 51 8 5 42 25 75 44 87 50 136 78 170 97 17 9 42 24 58 34 l27 18 0 687 c0 535 -3 691 -12 703 -7 8 -35 28 -62 44 -27 16 -61 36 -75 45 -14 9 -48 28 -76 44 -100 57 -228 131 -263 152 -21 12 -55 32 -77 43 -22 12 -62 35 -90 51 -27 16 -62 35 -77 42 -16 6 -28 15 -28 18 0 4 -24 19 -52 33 -29 14 -62 31 -73 38 -11 7 -38 24 -60 37 -22 14 -49 30 -60 36 -45 25 -122 69 -162 92 l-43 25 -42 -25 c-39 -22 -108 -61 -163 -91 -11 -6 -27 -16 -35 -23 -16 -13 -265 -156 -315 -181 -16 -8 -41 -23 -55 -32 -14 -9 -38 -22 -54 -28 l-28 -13 3 334 c4 355 4 358 -44 373 -11 4 -42 21 -67 38 -65 44 -80 53 -125 76 -22 12 -58 32 -80 45 -22 13 -58 34 -80 45 -22 12 -78 43 -124 70 -46 28 -89 50 -95 50 -6 0 -48 -22 -93 -48z m1627 -1445 c91 -52 207 -118 257 -148 l93 -54 0 -337 c0 -306 -2 -338 -16 -338 -15 0 -57 -22 -212 -112 -26 -15 -63 -35 -82 -45 -19 -9 -53 -29 -75 -44 -22 -14 -67 -41 -100 -59 -33 -18 -68 -38 -77 -44 -13 -8 -23 -8 -35 0 -10 6 -45 26 -78 44 -33 18 -71 41 -85 50 -14 10 -47 30 -75 46 -99 55 -144 80 -233 129 l-92 50 0 326 0 326 93 56 c50 30 153 90 227 133 74 42 164 94 200 115 l65 37 30 -18 c17 -10 104 -61 195 -113z"/>
 <path d="M10355 2020 c-7 -11 35 -31 49 -22 5 3 1 11 -9 19 -22 16 -32 16 -40 3z"/>
 <path d="M10286 1981 c-4 -5 -2 -12 3 -15 5 -4 12 -2 15 3 4 5 2 12 -3 15 -5 4 -12 2 -15 -3z"/>
 <path d="M10246 1951 c-4 -5 -2 -12 3 -15 5 -4 12 -2 15 3 4 5 2 12 -3 15 -5 4 -12 2 -15 -3z"/>
 <path d="M10206 1931 c-4 -5 -2 -12 3 -15 5 -4 12 -2 15 3 4 5 2 12 -3 15 -5 4 -12 2 -15 -3z"/>
 <path d="M10156 1901 c-4 -5 -2 -12 3 -15 5 -4 12 -2 15 3 4 5 2 12 -3 15 -5 4 -12 2 -15 -3z"/>
 <path d="M10566 1901 c-4 -5 -2 -12 3 -15 5 -4 12 -2 15 3 4 5 2 12 -3 15 -5 4 -12 2 -15 -3z"/>
 <path d="M10646 1861 c-4 -5 -2 -12 3 -15 5 -4 12 -2 15 3 4 5 2 12 -3 15 -5 4 -12 2 -15 -3z"/>
 <path d="M10066 1851 c-4 -5 -2 -12 3 -15 5 -4 12 -2 15 3 4 5 2 12 -3 15 -5 4 -12 2 -15 -3z"/>
 <path d="M10026 1831 c-4 -5 -2 -12 3 -15 5 -4 12 -2 15 3 4 5 2 12 -3 15 -5 4 -12 2 -15 -3z"/>
 <path d="M10696 1831 c-4 -5 -2 -12 3 -15 5 -4 12 -2 15 3 4 5 2 12 -3 15 -5 4 -12 2 -15 -3z"/>
 <path d="M9996 1811 c-4 -5 -2 -12 3 -15 5 -4 12 -2 15 3 4 5 2 12 -3 15 -5 4 -12 2 -15 -3z"/>
 <path d="M10726 1811 c-4 -5 -2 -12 3 -15 5 -4 12 -2 15 3 4 5 2 12 -3 15 -5 4 -12 2 -15 -3z"/>
 <path d="M9925 1776 c-11 -8 -14 -16 -8 -19 6 -4 18 0 28 7 11 8 14 16 8 19 -6 4 -18 0 -28 -7z"/>
 <path d="M10786 1781 c-4 -5 -2 -12 3 -15 5 -4 12 -2 15 3 4 5 2 12 -3 15 -5 4 -12 2 -15 -3z"/>
 <path d="M9886 1751 c-4 -5 -2 -12 3 -15 5 -4 12 -2 15 3 4 5 2 12 -3 15 -5 4 -12 2 -15 -3z"/>
 <path d="M9846 1731 c-4 -5 -2 -12 3 -15 5 -4 12 -2 15 3 4 5 2 12 -3 15 -5 4 -12 2 -15 -3z"/>
 <path d="M14705 4020 c-44 -27 -98 -57 -120 -68 -22 -10 -46 -26 -54 -35 -7 -10 -20 -17 -29 -17 -8 0 -23 -6 -31 -14 -9 -8 -38 -26 -64 -41 -27 -15 -70 -40 -95 -56 -26 -16 -58 -34 -72 -40 -14 -5 -33 -18 -42 -26 -17 -15 -18 -83 -17 -1182 1 -641 4 -1271 8 -1400 l6 -234 50 -26 c28 -14 64 -36 80 -47 27 -19 55 -35 195 -112 25 -14 51 -30 59 -35 16 -14 44 -30 96 -58 82 -44 105 -57 120 -69 12 -10 18 -10 30 0 19 16 20 500 4 1823 -7 515 -10 939 -7 942 3 3 21 -3 39 -14 19 -11 50 -29 70 -40 20 -11 128 -74 240 -139 112 -65 215 -121 228 -125 17 -4 33 1 56 19 17 13 35 24 38 24 4 0 53 28 109 62 57 34 126 74 153 88 28 15 73 41 102 59 29 18 72 43 95 55 l43 23 3 366 c3 412 7 390 -71 340 -23 -15 -58 -36 -77 -46 -73 -37 -121 -65 -138 -78 -9 -8 -26 -19 -37 -25 -20 -11 -107 -59 -175 -97 -19 -10 -40 -23 -45 -27 -6 -5 -35 -22 -65 -38 -30 -16 -71 -39 -90 -50 -38 -24 -158 -94 -224 -131 -22 -13 -59 -34 -81 -47 -22 -13 -58 -33 -80 -44 -22 -11 -49 -27 -60 -35 -20 -16 -20 -14 -25 312 -6 383 4 361 -125 283z"/>
 <path d="M1160 3405 c-25 -13 -52 -27 -60 -31 -8 -4 -26 -15 -40 -24 -25 -18 -44 -29 -155 -90 -33 -18 -82 -48 -110 -65 -27 -18 -67 -41 -87 -52 -32 -16 -94 -51 -237 -135 -25 -15 -59 -34 -76 -43 -31 -17 -53 -29 -227 -130 -56 -33 -112 -65 -123 -70 -20 -10 -20 -22 -23 -1230 l-2 -1220 37 -18 c21 -9 71 -38 111 -62 41 -25 76 -45 79 -45 3 0 19 -10 36 -22 18 -13 49 -32 69 -43 20 -11 75 -42 120 -69 62 -37 96 -50 136 -54 l52 -4 0 486 c0 448 3 511 24 477 4 -5 41 -29 83 -53 42 -23 97 -55 122 -70 25 -14 64 -36 86 -47 22 -12 61 -35 87 -51 88 -54 139 -80 158 -80 23 0 95 39 163 86 26 19 49 34 52 34 7 0 134 71 190 105 22 14 58 34 80 45 34 18 137 78 185 110 8 5 33 19 55 30 55 29 80 44 96 57 8 5 34 21 59 35 112 62 164 91 208 118 26 16 62 36 80 44 l32 15 0 699 c0 780 7 704 -70 746 -19 11 -57 34 -85 51 -27 18 -80 49 -117 69 -37 19 -87 48 -110 63 -24 15 -59 35 -79 44 -19 9 -55 29 -80 45 -47 30 -102 62 -159 91 -19 10 -55 32 -80 48 -59 39 -77 50 -125 75 -22 11 -58 32 -80 46 -22 13 -58 34 -80 45 -22 11 -58 31 -80 45 -49 29 -58 29 -115 -1z m74 -714 c3 -5 32 -24 64 -42 31 -17 73 -41 92 -52 19 -11 52 -29 73 -39 20 -11 39 -24 42 -28 3 -5 18 -15 33 -23 35 -17 131 -71 194 -108 27 -16 54 -27 59 -23 6 3 8 -122 7 -332 l-3 -337 -160 -93 c-177 -103 -395 -227 -407 -232 -5 -2 -72 33 -151 79 -78 45 -208 120 -289 166 l-148 84 0 330 c0 245 3 329 12 329 6 0 19 6 27 14 9 8 70 44 136 81 201 113 209 117 245 142 19 12 38 23 43 23 4 0 31 16 60 35 55 37 63 40 71 26z"/>
 <path d="M676 2372 c-3 -6 -2 -13 4 -17 5 -3 10 -3 10 1 0 3 7 1 15 -6 8 -6 19 -9 25 -5 14 9 1 28 -15 21 -7 -2 -17 0 -23 6 -6 6 -12 6 -16 0z"/>
 <path d="M1735 2370 c-4 -6 -10 -8 -15 -5 -5 3 -11 1 -14 -4 -4 -5 -2 -12 3 -15 5 -4 12 -2 16 4 4 6 10 8 15 5 5 -3 11 -1 14 4 4 5 2 12 -3 15 -5 4 -12 2 -16 -4z"/>
 <path d="M756 2331 c-9 -15 23 -36 35 -24 8 8 5 14 -9 22 -12 6 -23 7 -26 2z"/>
 <path d="M1651 2326 c-7 -8 -8 -17 -3 -20 6 -3 15 1 21 8 7 8 8 17 3 20 -6 3 -15 -1 -21 -8z"/>
 <path d="M826 2291 c-4 -5 -2 -12 3 -15 5 -4 12 -2 15 3 4 5 2 12 -3 15 -5 4 -12 2 -15 -3z"/>
 <path d="M856 2271 c-4 -5 -2 -12 3 -15 5 -4 12 -2 15 3 4 5 2 12 -3 15 -5 4 -12 2 -15 -3z"/>
 <path d="M1556 2271 c-4 -5 -2 -12 3 -15 5 -4 12 -2 15 3 4 5 2 12 -3 15 -5 4 -12 2 -15 -3z"/>
 <path d="M895 2251 c-3 -6 3 -15 14 -21 12 -6 22 -6 26 -1 3 6 -3 15 -14 21 -12 6 -22 6 -26 1z"/>
 <path d="M945 2221 c-3 -6 3 -15 14 -21 12 -6 22 -6 26 -1 3 6 -3 15 -14 21 -12 6 -22 6 -26 1z"/>
 <path d="M1461 2216 c-7 -8 -8 -17 -3 -20 6 -3 15 1 21 8 7 8 8 17 3 20 -6 3 -15 -1 -21 -8z"/>
 <path d="M996 2191 c-4 -5 -2 -12 3 -15 5 -4 12 -2 15 3 4 5 2 12 -3 15 -5 4 -12 2 -15 -3z"/>
 <path d="M1416 2191 c-4 -5 -2 -12 3 -15 5 -4 12 -2 15 3 4 5 2 12 -3 15 -5 4 -12 2 -15 -3z"/>
 <path d="M1366 2161 c-4 -5 -2 -12 3 -15 5 -4 12 -2 15 3 4 5 2 12 -3 15 -5 4 -12 2 -15 -3z"/>
 <path d="M1316 2131 c-4 -5 -2 -12 3 -15 5 -4 12 -2 15 3 4 5 2 12 -3 15 -5 4 -12 2 -15 -3z"/>
 <path d="M1116 2121 c-4 -5 -2 -12 3 -15 5 -4 12 -2 15 3 4 5 2 12 -3 15 -5 4 -12 2 -15 -3z"/>
 <path d="M1256 2101 c-4 -5 -2 -12 3 -15 5 -4 12 -2 15 3 4 5 2 12 -3 15 -5 4 -12 2 -15 -3z"/>
 <path d="M1185 2081 c-3 -6 3 -15 14 -21 12 -6 22 -6 26 -1 3 6 -3 15 -14 21 -12 6 -22 6 -26 1z"/>
 <path d="M3633 3402 c-18 -9 -59 -33 -90 -52 -32 -19 -67 -39 -78 -45 -11 -6 -47 -26 -80 -45 -33 -18 -78 -45 -100 -60 -22 -15 -78 -48 -125 -74 -47 -25 -103 -57 -125 -71 -22 -13 -58 -33 -80 -45 -22 -11 -58 -31 -80 -45 -22 -13 -58 -34 -80 -45 -22 -12 -76 -43 -120 -70 -44 -27 -96 -57 -115 -66 -19 -10 -47 -27 -62 -38 l-28 -20 0 -867 0 -867 111 -64 c61 -34 132 -75 158 -90 25 -15 60 -34 78 -43 17 -8 52 -28 77 -45 74 -50 197 -112 212 -106 12 4 14 89 14 502 0 426 2 495 14 485 8 -7 17 -8 20 -3 3 6 -1 15 -9 22 -8 7 -15 9 -15 5 0 -4 -7 -2 -15 5 -22 18 -23 705 -1 697 8 -3 20 1 27 9 7 9 29 24 48 35 44 24 113 64 178 103 26 15 68 40 93 54 25 14 59 33 75 43 17 10 56 32 88 49 63 34 48 36 152 -24 22 -12 63 -35 90 -51 28 -15 55 -31 60 -35 10 -8 28 -18 140 -80 33 -18 83 -48 111 -66 28 -19 59 -34 68 -34 15 0 16 -27 11 -337 -3 -186 -7 -571 -10 -856 -5 -447 -3 -518 9 -523 14 -5 113 43 146 71 8 7 20 14 25 16 6 2 77 42 158 89 81 47 167 95 190 108 23 12 56 30 72 40 l30 19 3 872 2 871 -22 10 c-23 10 -31 15 -103 60 -22 14 -47 29 -55 33 -15 8 -39 22 -186 107 -42 25 -96 56 -120 70 -146 85 -264 150 -273 150 -6 0 -11 5 -11 10 0 6 -10 14 -23 19 -13 5 -41 21 -63 36 -21 15 -57 35 -79 46 -22 11 -58 31 -80 44 -22 14 -56 34 -75 45 -19 11 -48 29 -65 40 -38 24 -52 24 -92 2z"/>
 <path d="M12792 3390 c-23 -16 -47 -30 -54 -30 -6 0 -19 -6 -27 -14 -9 -8 -32 -23 -51 -34 -19 -11 -64 -37 -100 -57 -36 -21 -81 -47 -100 -57 -19 -10 -52 -29 -72 -41 -76 -45 -225 -131 -288 -165 -36 -19 -90 -51 -120 -70 -57 -36 -73 -46 -175 -102 -33 -18 -72 -41 -87 -51 -14 -11 -30 -19 -35 -19 -6 0 -17 -8 -27 -18 -15 -17 -16 -78 -14 -713 l3 -693 55 -38 c30 -20 59 -37 64 -37 5 -1 37 -18 70 -40 34 -21 73 -45 88 -52 15 -8 61 -34 104 -59 152 -89 169 -99 204 -116 19 -10 42 -23 50 -30 8 -6 45 -28 82 -47 36 -19 97 -55 135 -79 37 -25 84 -52 103 -62 71 -36 116 -62 163 -93 67 -46 86 -49 126 -18 19 14 39 25 45 25 5 0 17 6 25 14 9 8 32 23 51 33 19 11 62 35 95 53 33 18 71 40 85 49 14 9 34 22 45 29 11 7 35 19 53 28 18 8 54 29 80 47 26 18 63 40 82 50 19 9 42 21 50 26 8 6 46 27 83 48 104 58 210 119 272 158 22 13 58 34 80 45 59 31 81 44 99 59 14 12 16 82 16 707 l0 694 -52 30 c-64 37 -85 50 -118 71 -14 9 -45 28 -70 41 -25 14 -99 56 -165 93 -66 37 -127 73 -135 80 -8 7 -31 20 -50 29 -19 9 -53 27 -75 40 -46 27 -224 129 -275 158 -19 11 -42 25 -50 32 -8 6 -24 16 -35 22 -114 62 -142 78 -156 90 -22 20 -31 18 -77 -16z m233 -798 c94 -54 220 -127 282 -162 l112 -65 1 -337 c0 -315 -1 -338 -17 -338 -10 0 -34 -10 -53 -22 -19 -12 -47 -29 -62 -37 -46 -27 -267 -155 -316 -183 -26 -15 -54 -31 -62 -34 -8 -4 -27 -16 -42 -26 l-27 -19 -55 36 c-30 19 -58 35 -61 35 -4 0 -37 19 -73 43 -37 24 -83 51 -102 61 -36 18 -83 44 -186 105 l-58 33 27 15 c15 8 25 18 21 24 -3 6 -19 2 -40 -11 -20 -11 -37 -20 -40 -20 -2 0 -4 152 -4 338 l0 337 113 63 c61 34 189 107 282 162 94 54 175 99 180 100 6 0 87 -44 180 -98z"/>
 <path d="M12836 2011 c-4 -5 -2 -12 3 -15 5 -4 12 -2 15 3 4 5 2 12 -3 15 -5 4 -12 2 -15 -3z"/>
 <path d="M12805 1990 c-4 -6 -10 -8 -15 -5 -5 3 -11 1 -14 -4 -4 -5 -2 -12 3 -15 5 -4 12 -2 16 4 4 6 10 8 15 5 5 -3 11 -1 14 4 4 5 2 12 -3 15 -5 4 -12 2 -16 -4z"/>
 <path d="M12736 1951 c-4 -5 -2 -12 3 -15 5 -4 12 -2 15 3 4 5 2 12 -3 15 -5 4 -12 2 -15 -3z"/>
 <path d="M12696 1931 c-4 -5 -2 -12 3 -15 5 -4 12 -2 15 3 4 5 2 12 -3 15 -5 4 -12 2 -15 -3z"/>
 <path d="M12632 1898 c-17 -11 -30 -24 -26 -29 5 -9 58 14 69 30 11 19 -11 18 -43 -1z"/>
 <path d="M13016 1901 c-4 -5 -2 -12 3 -15 5 -4 12 -2 15 3 4 5 2 12 -3 15 -5 4 -12 2 -15 -3z"/>
 <path d="M12517 1834 c-38 -20 -24 -38 14 -19 16 9 27 20 24 25 -7 12 -4 13 -38 -6z"/>
 <path d="M13125 1841 c-3 -6 3 -15 14 -21 12 -6 22 -6 26 -1 3 6 -3 15 -14 21 -12 6 -22 6 -26 1z"/>
 <path d="M12416 1771 c-11 -12 -14 -21 -7 -26 10 -6 15 0 13 16 -1 4 4 6 11 5 14 -1 23 17 10 21 -5 2 -17 -5 -27 -16z"/>
 <path d="M13236 1781 c-4 -5 -2 -12 3 -15 5 -4 12 -2 15 3 4 5 2 12 -3 15 -5 4 -12 2 -15 -3z"/>
 <path d="M15446 3011 c-4 -5 -2 -12 3 -15 5 -4 12 -2 15 3 4 5 2 12 -3 15 -5 4 -12 2 -15 -3z"/>
 <path d="M15525 2961 c-3 -5 8 -16 25 -24 36 -18 50 -5 18 17 -26 18 -35 20 -43 7z"/>
 <path d="M15606 2921 c-6 -10 10 -25 36 -34 31 -11 30 12 -1 28 -16 8 -32 11 -35 6z"/>
 <path d="M15675 2879 c-7 -10 55 -50 67 -43 12 8 1 21 -32 38 -17 8 -32 10 -35 5z"/>
 <path d="M15766 2831 c-4 -5 -2 -12 3 -15 5 -4 12 -2 15 3 4 5 2 12 -3 15 -5 4 -12 2 -15 -3z"/>
 <path d="M15796 2811 c-4 -5 -2 -12 3 -15 5 -4 12 -2 15 3 4 5 2 12 -3 15 -5 4 -12 2 -15 -3z"/>
 <path d="M15926 2731 c-4 -5 -2 -12 3 -15 5 -4 12 -2 15 3 4 5 2 12 -3 15 -5 4 -12 2 -15 -3z"/>
 <path d="M15991 2694 c0 -11 3 -14 6 -6 3 7 2 16 -1 19 -3 4 -6 -2 -5 -13z"/>
 <path d="M9066 2671 c-4 -5 -2 -12 3 -15 5 -4 12 -2 15 3 4 5 2 12 -3 15 -5 4 -12 2 -15 -3z"/>
 <path d="M14876 2621 c-4 -5 -2 -12 3 -15 5 -4 12 -2 15 3 4 5 2 12 -3 15 -5 4 -12 2 -15 -3z"/>
 <path d="M8916 2581 c-4 -5 -2 -12 3 -15 5 -4 12 -2 15 3 4 5 2 12 -3 15 -5 4 -12 2 -15 -3z"/>
 <path d="M14936 2581 c-4 -5 -2 -12 4 -16 5 -3 10 -3 10 1 0 4 9 -1 19 -10 11 -10 22 -13 25 -8 3 5 -1 15 -9 22 -8 7 -15 9 -15 5 0 -4 -6 -2 -14 4 -9 8 -16 8 -20 2z"/>
 <path d="M8831 2536 c-7 -8 -8 -17 -3 -20 6 -3 15 1 21 8 7 8 8 17 3 20 -6 3 -15 -1 -21 -8z"/>
 <path d="M15026 2531 c-4 -5 -2 -12 4 -16 5 -3 10 -3 10 1 0 4 9 -1 19 -10 11 -10 22 -13 25 -8 3 5 -1 15 -9 22 -8 7 -15 9 -15 5 0 -4 -6 -2 -14 4 -9 8 -16 8 -20 2z"/>
 <path d="M15106 2492 c-3 -6 1 -15 8 -21 8 -7 17 -8 20 -3 3 6 -1 15 -8 21 -8 7 -17 8 -20 3z"/>
 <path d="M15176 2451 c-6 -8 5 -20 31 -35 23 -13 22 12 -2 28 -13 9 -26 12 -29 7z"/>
 <path d="M8586 2391 c-4 -5 -2 -12 3 -15 5 -4 12 -2 15 3 4 5 2 12 -3 15 -5 4 -12 2 -15 -3z"/>
 <path d="M15266 2391 c-4 -5 -2 -12 3 -15 5 -4 12 -2 15 3 4 5 2 12 -3 15 -5 4 -12 2 -15 -3z"/>
 <path d="M4186 2361 c-4 -5 -2 -12 3 -15 5 -4 12 -2 15 3 4 5 2 12 -3 15 -5 4 -12 2 -15 -3z"/>
 <path d="M6646 2351 c-4 -5 -2 -12 3 -15 5 -4 12 -2 15 3 4 5 2 12 -3 15 -5 4 -12 2 -15 -3z"/>
 <path d="M15335 2351 c-7 -12 12 -24 25 -16 11 7 4 25 -10 25 -5 0 -11 -4 -15 -9z"/>
 <path d="M4132 2328 c-34 -21 -35 -40 -3 -31 25 6 55 39 44 46 -5 3 -23 -3 -41 -15z"/>
 <path d="M5646 2332 c-3 -6 1 -15 8 -21 8 -7 17 -8 20 -3 3 6 -1 15 -8 21 -8 7 -17 8 -20 3z"/>
 <path d="M6595 2326 c-14 -10 -15 -15 -6 -21 8 -4 19 -1 28 8 20 19 1 30 -22 13z"/>
 <path d="M3205 2320 c-3 -5 12 -18 34 -30 23 -11 42 -16 46 -10 3 5 -12 18 -34 30 -23 11 -42 16 -46 10z"/>
 <path d="M15365 2319 c-10 -27 -1 -1004 10 -1002 14 4 19 993 5 1007 -6 6 -11 4 -15 -5z"/>
 <path d="M6525 2280 c-4 -6 -10 -8 -15 -5 -5 3 -11 1 -14 -4 -4 -5 -2 -12 3 -15 5 -4 12 -2 16 4 4 6 10 8 15 5 5 -3 11 -1 14 4 4 5 2 12 -3 15 -5 4 -12 2 -16 -4z"/>
 <path d="M3295 2271 c-3 -6 3 -15 14 -21 12 -6 22 -6 26 -1 3 6 -3 15 -14 21 -12 6 -22 6 -26 1z"/>
 <path d="M4035 2271 c-7 -12 12 -24 25 -16 11 7 4 25 -10 25 -5 0 -11 -4 -15 -9z"/>
 <path d="M5746 2271 c-4 -5 -2 -12 3 -15 5 -4 12 -2 15 3 4 5 2 12 -3 15 -5 4 -12 2 -15 -3z"/>
 <path d="M4006 2251 c-4 -5 -2 -12 3 -15 5 -4 12 -2 15 3 4 5 2 12 -3 15 -5 4 -12 2 -15 -3z"/>
 <path d="M3356 2241 c-4 -5 -2 -12 3 -15 5 -4 12 -2 15 3 4 5 2 12 -3 15 -5 4 -12 2 -15 -3z"/>
 <path d="M3386 2221 c-4 -5 -2 -12 3 -15 5 -4 12 -2 15 3 4 5 2 12 -3 15 -5 4 -12 2 -15 -3z"/>
 <path d="M3927 2209 c-21 -11 -35 -24 -32 -29 4 -6 23 -1 46 10 22 12 37 25 34 30 -7 12 -2 13 -48 -11z"/>
 <path d="M5826 2221 c-4 -5 -2 -12 3 -15 5 -4 12 -2 15 3 4 5 2 12 -3 15 -5 4 -12 2 -15 -3z"/>
 <path d="M6386 2209 c-25 -13 -35 -24 -29 -30 12 -12 86 28 77 42 -6 11 -1 12 -48 -12z"/>
 <path d="M3436 2191 c-4 -5 -2 -12 3 -15 5 -4 12 -2 15 3 4 5 2 12 -3 15 -5 4 -12 2 -15 -3z"/>
 <path d="M5886 2191 c-4 -5 -2 -12 3 -15 5 -4 12 -2 15 3 4 5 2 12 -3 15 -5 4 -12 2 -15 -3z"/>
 <path d="M3866 2171 c-4 -5 -2 -12 3 -15 5 -4 12 -2 15 3 4 5 2 12 -3 15 -5 4 -12 2 -15 -3z"/>
 <path d="M6326 2171 c-4 -5 -2 -12 3 -15 5 -4 12 -2 15 3 4 5 2 12 -3 15 -5 4 -12 2 -15 -3z"/>
 <path d="M5935 2161 c-3 -6 3 -15 14 -21 12 -6 22 -6 26 -1 3 6 -3 15 -14 21 -12 6 -22 6 -26 1z"/>
 <path d="M3821 2146 c-7 -8 -8 -17 -3 -20 6 -3 15 1 21 8 7 8 8 17 3 20 -6 3 -15 -1 -21 -8z"/>
 <path d="M6286 2151 c-4 -5 -2 -12 3 -15 5 -4 12 -2 15 3 4 5 2 12 -3 15 -5 4 -12 2 -15 -3z"/>
 <path d="M3776 2121 c-4 -5 -2 -12 3 -15 5 -4 12 -2 15 3 4 5 2 12 -3 15 -5 4 -12 2 -15 -3z"/>
 <path d="M6006 2121 c-4 -5 -2 -12 3 -15 5 -4 12 -2 15 3 4 5 2 12 -3 15 -5 4 -12 2 -15 -3z"/>
 <path d="M6216 2111 c-4 -5 -2 -12 3 -15 5 -4 12 -2 15 3 4 5 2 12 -3 15 -5 4 -12 2 -15 -3z"/>
 <path d="M3736 2101 c-4 -5 -2 -12 3 -15 5 -4 12 -2 15 3 4 5 2 12 -3 15 -5 4 -12 2 -15 -3z"/>
 <path d="M6046 2101 c-4 -5 -2 -12 3 -15 5 -4 12 -2 15 3 4 5 2 12 -3 15 -5 4 -12 2 -15 -3z"/>
 <path d="M3606 2091 c-4 -5 -2 -12 3 -15 5 -4 12 -2 15 3 4 5 2 12 -3 15 -5 4 -12 2 -15 -3z"/>
 <path d="M3695 2070 c-4 -6 -10 -8 -15 -5 -5 3 -11 1 -14 -4 -4 -5 -2 -12 3 -15 5 -4 12 -2 16 4 4 6 10 8 15 5 5 -3 11 -1 14 4 4 5 2 12 -3 15 -5 4 -12 2 -16 -4z"/>
 <path d="M6156 2071 c-4 -5 -2 -12 3 -15 5 -4 12 -2 15 3 4 5 2 12 -3 15 -5 4 -12 2 -15 -3z"/>
 <path d="M4196 1641 c-4 -5 -2 -12 3 -15 5 -4 12 -2 15 3 4 5 2 12 -3 15 -5 4 -12 2 -15 -3z"/>
 <path d="M5586 1641 c-4 -5 -2 -12 3 -15 5 -4 12 -2 15 3 4 5 2 12 -3 15 -5 4 -12 2 -15 -3z"/>
 <path d="M6656 1641 c-4 -5 -2 -12 3 -15 5 -4 12 -2 15 3 4 5 2 12 -3 15 -5 4 -12 2 -15 -3z"/>
 <path d="M4165 1630 c-4 -6 -3 -16 3 -22 6 -6 12 -6 17 2 4 6 3 16 -3 22 -6 6 -12 6 -17 -2z"/>
 <path d="M6626 1621 c-4 -5 -2 -12 3 -15 5 -4 12 -2 15 3 4 5 2 12 -3 15 -5 4 -12 2 -15 -3z"/>
 <path d="M15925 1616 c-11 -8 -14 -16 -8 -19 6 -4 18 0 28 7 11 8 14 16 8 19 -6 4 -18 0 -28 -7z"/>
 <path d="M6581 1596 c-7 -8 -8 -17 -3 -20 6 -3 15 1 21 8 7 8 8 17 3 20 -6 3 -15 -1 -21 -8z"/>
 <path d="M4116 1591 c-4 -5 -2 -12 3 -15 5 -4 12 -2 15 3 4 5 2 12 -3 15 -5 4 -12 2 -15 -3z"/>
 <path d="M5666 1591 c-4 -5 -2 -12 3 -15 5 -4 12 -2 15 3 4 5 2 12 -3 15 -5 4 -12 2 -15 -3z"/>
 <path d="M4076 1571 c-4 -5 -2 -12 3 -15 5 -4 12 -2 15 3 4 5 2 12 -3 15 -5 4 -12 2 -15 -3z"/>
 <path d="M6536 1571 c-4 -5 -2 -12 3 -15 5 -4 12 -2 15 3 4 5 2 12 -3 15 -5 4 -12 2 -15 -3z"/>
 <path d="M5725 1561 c-3 -6 3 -15 14 -21 12 -6 22 -6 26 -1 3 6 -3 15 -14 21 -12 6 -22 6 -26 1z"/>
 <path d="M4017 1543 c-15 -8 -25 -18 -22 -24 9 -13 20 -11 46 9 28 24 13 33 -24 15z"/>
 <path d="M6485 1546 c-38 -21 -45 -27 -40 -37 6 -9 59 14 70 30 9 15 -8 19 -30 7z"/>
 <path d="M3306 1541 c-4 -5 -2 -12 4 -16 5 -3 10 -3 10 1 0 3 6 1 14 -5 10 -8 16 -9 21 -1 3 5 4 11 1 11 -3 1 -9 2 -13 3 -5 1 -13 5 -20 9 -6 4 -14 3 -17 -2z"/>
 <path d="M5786 1531 c-4 -5 -2 -12 3 -15 5 -4 12 -2 15 3 4 5 2 12 -3 15 -5 4 -12 2 -15 -3z"/>
 <path d="M3951 1501 c-14 -11 -19 -21 -13 -25 5 -3 20 2 33 12 29 24 11 36 -20 13z"/>
 <path d="M5816 1511 c-4 -5 -2 -12 3 -15 5 -4 12 -2 15 3 4 5 2 12 -3 15 -5 4 -12 2 -15 -3z"/>
 <path d="M3375 1501 c-3 -6 3 -15 14 -21 12 -6 22 -6 26 -1 3 6 -3 15 -14 21 -12 6 -22 6 -26 1z"/>
 <path d="M6397 1494 c-38 -20 -24 -38 14 -19 16 9 27 20 24 25 -7 12 -4 13 -38 -6z"/>
 <path d="M15736 1501 c-4 -5 -2 -12 3 -15 5 -4 12 -2 15 3 4 5 2 12 -3 15 -5 4 -12 2 -15 -3z"/>
 <path d="M15666 1461 c-4 -5 -2 -12 3 -15 5 -4 12 -2 15 3 4 5 2 12 -3 15 -5 4 -12 2 -15 -3z"/>
 <path d="M3466 1451 c-4 -5 -2 -12 3 -15 5 -4 12 -2 15 3 4 5 2 12 -3 15 -5 4 -12 2 -15 -3z"/>
 <path d="M6336 1451 c-4 -5 -2 -12 3 -15 5 -4 12 -2 15 3 4 5 2 12 -3 15 -5 4 -12 2 -15 -3z"/>
 <path d="M3846 1441 c-4 -5 -2 -12 3 -15 5 -4 12 -2 15 3 4 5 2 12 -3 15 -5 4 -12 2 -15 -3z"/>
 <path d="M3506 1431 c-4 -5 -2 -12 3 -15 5 -4 12 -2 15 3 4 5 2 12 -3 15 -5 4 -12 2 -15 -3z"/>
 <path d="M6296 1431 c-4 -5 -2 -12 3 -15 5 -4 12 -2 15 3 4 5 2 12 -3 15 -5 4 -12 2 -15 -3z"/>
 <path d="M3796 1411 c-10 -11 -13 -22 -8 -25 5 -3 17 3 26 13 10 11 13 22 8 25 -5 3 -17 -3 -26 -13z"/>
 <path d="M6235 1396 c-11 -8 -14 -16 -8 -19 6 -4 18 0 28 7 11 8 14 16 8 19 -6 4 -18 0 -28 -7z"/>
 <path d="M6016 1391 c-4 -5 -2 -12 3 -15 5 -4 12 -2 15 3 4 5 2 12 -3 15 -5 4 -12 2 -15 -3z"/>
 <path d="M15496 1371 c-4 -5 -2 -12 3 -15 5 -4 12 -2 15 3 4 5 2 12 -3 15 -5 4 -12 2 -15 -3z"/>
 <path d="M3705 1356 c-11 -8 -14 -16 -8 -19 6 -4 18 0 28 7 11 8 14 16 8 19 -6 4 -18 0 -28 -7z"/>
 <path d="M6065 1361 c-3 -6 3 -15 14 -21 12 -6 22 -6 26 -1 3 6 -3 15 -14 21 -12 6 -22 6 -26 1z"/>
 <path d="M6176 1361 c-4 -5 -2 -12 3 -15 5 -4 12 -2 15 3 4 5 2 12 -3 15 -5 4 -12 2 -15 -3z"/>
 <path d="M6136 1341 c-4 -5 -2 -12 3 -15 5 -4 12 -2 15 3 4 5 2 12 -3 15 -5 4 -12 2 -15 -3z"/>
 <path d="M4985 961 c-3 -6 3 -15 14 -21 12 -6 22 -6 26 -1 3 6 -3 15 -14 21 -12 6 -22 6 -26 1z"/>
 <path d="M7256 961 c-4 -5 -2 -12 3 -15 5 -4 12 -2 15 3 4 5 2 12 -3 15 -5 4 -12 2 -15 -3z"/>
 <path d="M7216 941 c-4 -5 -2 -12 3 -15 5 -4 12 -2 15 3 4 5 2 12 -3 15 -5 4 -12 2 -15 -3z"/>
 <path d="M5066 921 c-6 -8 5 -20 31 -35 23 -13 22 12 -2 28 -13 9 -26 12 -29 7z"/>
 <path d="M7165 916 c-11 -7 -33 -20 -48 -30 -46 -28 -20 -37 28 -9 25 13 47 28 50 33 9 15 -9 18 -30 6z"/>
 <path d="M5136 882 c-3 -6 1 -15 8 -21 8 -7 17 -8 20 -3 3 6 -1 15 -8 21 -8 7 -17 8 -20 3z"/>
 <path d="M5186 851 c-4 -5 -2 -12 3 -15 5 -4 12 -2 15 3 4 5 2 12 -3 15 -5 4 -12 2 -15 -3z"/>
 <path d="M7036 841 c-4 -5 -2 -12 3 -15 5 -4 12 -2 15 3 4 5 2 12 -3 15 -5 4 -12 2 -15 -3z"/>
 <path d="M6986 811 c-4 -5 -2 -12 3 -15 5 -4 12 -2 15 3 4 5 2 12 -3 15 -5 4 -12 2 -15 -3z"/>
 <path d="M6926 771 c-4 -5 -2 -12 3 -15 5 -4 12 -2 15 3 4 5 2 12 -3 15 -5 4 -12 2 -15 -3z"/>
 <path d="M5335 761 c-3 -6 3 -15 14 -21 12 -6 22 -6 26 -1 3 6 -3 15 -14 21 -12 6 -22 6 -26 1z"/>
 <path d="M6886 751 c-4 -5 -2 -12 3 -15 5 -4 12 -2 15 3 4 5 2 12 -3 15 -5 4 -12 2 -15 -3z"/>
 <path d="M5386 731 c-4 -5 -2 -12 3 -15 5 -4 12 -2 15 3 4 5 2 12 -3 15 -5 4 -12 2 -15 -3z"/>
 <path d="M6845 726 c-11 -8 -14 -16 -8 -19 6 -4 18 0 28 7 11 8 14 16 8 19 -6 4 -18 0 -28 -7z"/>
 <path d="M5426 712 c-3 -6 1 -15 8 -21 8 -7 17 -8 20 -3 3 6 -1 15 -8 21 -8 7 -17 8 -20 3z"/>
 <path d="M6785 697 c-10 -8 -14 -16 -9 -19 14 -9 56 11 49 22 -8 13 -18 13 -40 -3z"/>
 <path d="M5476 681 c-4 -5 -2 -12 3 -15 5 -4 12 -2 15 3 4 5 2 12 -3 15 -5 4 -12 2 -15 -3z"/>
 <path d="M5525 651 c-7 -12 12 -24 25 -16 11 7 4 25 -10 25 -5 0 -11 -4 -15 -9z"/>
 </g>

</svg>